<svg width="56" height="56" viewBox="0 0 56 56" fill="none" xmlns="http://www.w3.org/2000/svg">
<rect width="56" height="56" rx="28" fill="#7B6FC5"/>
<path fill-rule="evenodd" clip-rule="evenodd" d="M29.4945 27.8912C35.3536 28.5618 39.9342 33.5053 40 39.5554C33.5063 39.6265 28.1745 34.4698 28.0037 28.0005H28.0016V27.9072C28.0016 27.8918 28.0011 27.8761 28.0005 27.8605C28 27.8448 27.9995 27.8292 27.9995 27.8138H28.0016C28.0302 21.3435 33.2485 16.0711 39.7422 16C39.8079 22.0501 35.3367 27.0923 29.4945 27.8912ZM27.9973 27.8138H27.9995L27.9984 27.8148V27.9082C27.9984 27.9236 27.9989 27.9392 27.9995 27.9549C28 27.9705 28.0005 27.9862 28.0005 28.0016H27.9984C27.9698 34.4719 22.7515 39.7443 16.2578 39.8154C16.1921 33.7652 20.6623 28.7231 26.5055 27.9241C20.6464 27.2535 16.0658 22.3101 16 16.26C22.4937 16.1889 27.8255 21.3456 27.9973 27.8138Z" fill="white"/>
</svg>
