<svg width="56" height="56" viewBox="0 0 56 56" fill="none" xmlns="http://www.w3.org/2000/svg">
<rect width="56" height="56" rx="28" fill="#7B6FC5"/>
<path d="M34.367 28.0005C37.4759 27.771 39.9257 25.1759 39.9257 22.009C39.9257 18.8422 37.2365 16 33.9177 16C30.8711 16 28.3547 18.2672 27.9634 21.2056C27.5709 18.2672 25.0545 16 22.0079 16C18.6902 16 16 18.6902 16 22.0079C16 25.3256 18.4508 27.7699 21.5586 27.9995C18.4508 28.2301 16 30.8241 16 33.9921C16 37.16 18.6902 40 22.0079 40C25.0545 40 27.5698 37.7328 27.9623 34.7944C28.3547 37.7328 30.8711 40 33.9166 40C37.2354 40 39.9246 37.3098 39.9246 33.9921C39.9246 30.6744 37.4737 28.2301 34.3659 28.0005H34.367ZM33.9177 19.2849C35.4219 19.2849 36.6408 20.5038 36.6408 22.0079C36.6408 23.5121 35.4219 24.731 33.9177 24.731C32.4136 24.731 31.1947 23.5121 31.1947 22.0079C31.1947 20.5038 32.4136 19.2849 33.9177 19.2849ZM19.2849 22.0079C19.2849 20.5038 20.5038 19.2849 22.0079 19.2849C23.5121 19.2849 24.7309 20.5038 24.7309 22.0079C24.7309 23.5121 23.5121 24.731 22.0079 24.731C20.5038 24.731 19.2849 23.5121 19.2849 22.0079ZM22.0079 36.7151C20.5038 36.7151 19.2849 35.4962 19.2849 33.9921C19.2849 32.4879 20.5038 31.269 22.0079 31.269C23.5121 31.269 24.7309 32.4879 24.7309 33.9921C24.7309 35.4962 23.5121 36.7151 22.0079 36.7151ZM27.9634 33.1886C27.5906 30.3956 25.2994 28.2093 22.4572 27.9995C25.2983 27.7896 27.5895 25.6033 27.9634 22.8103C28.3361 25.6033 30.6274 27.7896 33.4696 27.9995C30.6285 28.2093 28.3372 30.3956 27.9634 33.1886ZM33.9177 36.7151C32.4136 36.7151 31.1947 35.4962 31.1947 33.9921C31.1947 32.4879 32.4136 31.269 33.9177 31.269C35.4219 31.269 36.6408 32.4879 36.6408 33.9921C36.6408 35.4962 35.4219 36.7151 33.9177 36.7151Z" fill="white"/>
</svg>
