<svg width="56" height="56" viewBox="0 0 56 56" fill="none" xmlns="http://www.w3.org/2000/svg">
<rect width="56" height="56" rx="28" fill="#7B6FC5"/>
<path d="M40 28.2516L31.973 29.1098L35.6824 27.7667C38.0298 26.9171 39.244 24.3255 38.3944 21.9782L38.0698 21.0809L32.0799 26.4933L34.2916 23.2267C35.691 21.1591 35.1498 18.3488 33.0831 16.9494L32.2937 16.4149L30.6289 24.314L30.4981 20.3706C30.4151 17.8754 28.3255 15.9204 25.8302 16.0025L24.8766 16.034L28.1728 23.4033L25.7491 20.2905C24.2151 18.3202 21.3752 17.967 19.4059 19.5001L18.6537 20.0862L25.6517 24.1097L21.8611 23.0158C19.4623 22.3237 16.9565 23.7069 16.2644 26.1048L16 27.0212L24.027 26.163L20.3176 27.5061C17.9702 28.3557 16.756 30.9474 17.6056 33.2947L17.9302 34.192L23.9201 28.7795L21.7084 32.0461C20.309 34.1137 20.8502 36.924 22.9169 38.3234L23.7063 38.858L25.3711 30.9588L25.5019 34.9022C25.5849 37.3975 27.6745 39.3524 30.1698 39.2703L31.1234 39.2388L27.8272 31.8695L30.2509 34.9824C31.7849 36.9526 34.6248 37.3058 36.5941 35.7728L37.3463 35.1867L30.3483 31.1631L34.1389 32.2571C36.5378 32.9491 39.0435 31.5659 39.7356 29.168L40 28.2516ZM28.2014 29.5126C27.8053 29.5546 27.4063 29.4706 27.0607 29.2721C26.7151 29.0735 26.4412 28.7709 26.2789 28.4072C26.1166 28.0435 26.0727 27.6378 26.1548 27.2474C26.2369 26.858 26.4402 26.5038 26.7361 26.2365C27.0321 25.9692 27.4043 25.8031 27.8005 25.7602C28.1966 25.7182 28.5957 25.8022 28.9412 26.0007C29.2868 26.1993 29.5607 26.5019 29.723 26.8656C29.8853 27.2293 29.9292 27.635 29.8471 28.0254C29.765 28.4149 29.5617 28.769 29.2658 29.0363C28.9699 29.3036 28.5976 29.4697 28.2014 29.5126Z" fill="white"/>
</svg>
