<svg width="56" height="56" viewBox="0 0 56 56" fill="none" xmlns="http://www.w3.org/2000/svg">
<rect width="56" height="56" rx="28" fill="#7B6FC5"/>
<path fill-rule="evenodd" clip-rule="evenodd" d="M36.5098 21.9704L31.4004 24.9453L31.3994 24.9444C30.2979 25.5866 28.9087 24.8037 28.8998 23.537L28.8572 17.6598C28.8482 16.3931 30.2255 15.5916 31.336 16.2171L36.489 19.1193C37.6005 19.7448 37.6114 21.3291 36.5098 21.9704ZM24.555 24.9945L19.402 22.0923L19.403 22.0933C18.2915 21.4678 18.2806 19.8834 19.3822 19.2422L24.4915 16.2672C25.5931 15.625 26.9822 16.4079 26.9911 17.6746L27.0338 23.5518C27.0427 24.8185 25.6655 25.62 24.555 24.9945ZM39.9563 24.9758C39.9474 23.7091 38.5583 22.9263 37.4567 23.5685L32.3474 26.5435C31.2458 27.1847 31.2567 28.7691 32.3682 29.3946L37.5212 32.2968C38.6317 32.9223 40.0089 32.1207 40 30.854L39.9573 24.9768L39.9563 24.9758ZM31.4441 31.0055L36.597 33.9077L36.5961 33.9067C37.7076 34.5322 37.7185 36.1166 36.6169 36.7578L31.5075 39.7328C30.4059 40.375 29.0168 39.5921 29.0079 38.3254L28.9653 32.4482C28.9563 31.1815 30.3336 30.38 31.4441 31.0055ZM24.5986 31.0547L19.4892 34.0296C18.3876 34.6709 18.3985 36.2552 19.51 36.8807L24.663 39.7829C25.7735 40.4084 27.1507 39.6069 27.1418 38.3402L27.0992 32.463C27.0903 31.1963 25.7011 30.4134 24.5995 31.0556L24.5986 31.0547ZM18.4789 23.7032L23.6318 26.6054L23.6308 26.6045C24.7423 27.2299 24.7532 28.8143 23.6517 29.4555L18.5423 32.4305C17.4407 33.0727 16.0516 32.2899 16.0427 31.0232L16 25.146C15.9911 23.8793 17.3684 23.0777 18.4789 23.7032Z" fill="white"/>
</svg>
