<svg width="29" height="25" viewBox="0 0 29 25" fill="none" xmlns="http://www.w3.org/2000/svg">
<path d="M26.2555 4.92773C25.1989 2.85208 22.1555 1.15381 18.6154 2.14258C16.9237 2.61035 15.4478 3.61349 14.4287 4.98811C13.4096 3.61349 11.9337 2.61035 10.242 2.14258C6.69402 1.16891 3.65849 2.85208 2.60197 4.92773C1.11969 7.83365 1.73468 11.1019 4.43117 14.6418C6.54422 17.4119 9.56398 20.2197 13.9478 23.4803C14.0863 23.5838 14.257 23.6399 14.4327 23.6399C14.6083 23.6399 14.779 23.5838 14.9176 23.4803C19.2934 20.2272 22.3211 17.4421 24.4341 14.6418C27.1227 11.1019 27.7377 7.83365 26.2555 4.92773Z" stroke="white" stroke-width="2.29333"/>
</svg>
