<svg width="87" height="87" viewBox="0 0 87 87" fill="none" xmlns="http://www.w3.org/2000/svg">
<rect width="86.2094" height="86.2094" rx="43.1047" fill="#7B6FC5"/>
<path fill-rule="evenodd" clip-rule="evenodd" d="M39.7119 42.7141C32.4627 38.5236 29.9799 29.2515 34.1661 22C41.4193 26.189 43.9043 35.4639 39.7172 42.7172C35.5281 49.9704 26.2533 52.4554 19 48.2683C23.188 41.0168 32.4594 38.5312 39.7119 42.7141ZM43 48.4384C42.9808 56.7982 36.1983 63.5689 27.834 63.5689C27.834 55.1927 34.6238 48.4029 43 48.4028L43 48.4384ZM43 48.4384L43 48.4028C51.3762 48.4029 58.166 55.1927 58.166 63.5689C49.8017 63.5689 43.0192 56.7982 43 48.4384ZM67 48.2683C59.7448 52.4554 50.4699 49.9704 46.2828 42.7172C46.2828 42.7172 46.2828 42.7172 46.2828 42.7172C42.0956 35.462 44.5806 26.1872 51.8339 22C56.0193 29.2522 53.5381 38.5224 46.2917 42.712C53.5436 38.532 62.8145 41.018 67 48.2683Z" fill="white"/>
</svg>
