<svg width="28" height="28" viewBox="0 0 28 28" fill="none" xmlns="http://www.w3.org/2000/svg">
<path d="M1.60205 24.7333V4.66665C1.60205 4.03337 2.11543 3.51999 2.74872 3.51999H10.9936C11.3022 3.51999 11.5977 3.39561 11.8135 3.17498L13.4592 1.49183C13.909 1.03181 14.6492 1.03181 15.099 1.49183L16.7447 3.17498C16.9604 3.39561 17.256 3.51999 17.5646 3.51999H25.6821C26.3153 3.51999 26.8287 4.03337 26.8287 4.66666V24.7333C26.8287 25.3666 26.3153 25.88 25.6821 25.88H2.74872C2.11543 25.88 1.60205 25.3666 1.60205 24.7333Z" stroke="#8E8E8E" stroke-width="2.29333"/>
<path d="M6.1886 25.88V25.3067C6.1886 22.1403 8.7555 19.5734 11.9219 19.5734H16.5086C19.675 19.5734 22.2419 22.1403 22.2419 25.3067V25.88" stroke="#8E8E8E" stroke-width="2.29333"/>
<circle cx="14.2147" cy="12.1201" r="4.58667" stroke="#8E8E8E" stroke-width="2.29333"/>
</svg>
